name analog
datacolumns 19
datarows 28
range 0.66 0.6735
endheader
time	ground_force_vx	ground_force_vy	ground_force_vz	ground_force_px	ground_force_py	ground_force_pz	l_ground_force_vx	l_ground_force_vy	l_ground_force_vz	l_ground_force_px	l_ground_force_py	l_ground_force_pz	ground_torque_x	ground_torque_y	ground_torque_z	l_ground_torque_x	l_ground_torque_y	l_ground_torque_z
0.66	-0.0	-0.0	-0.0	4.827220439910889	35.6951789855957	-191.9471435546875	-10.582813262939451	-41.082645416259766	-219.48585510253903	-0.0	-0.0	-0.0	-0.0	-0.0	-0.0	47417.05859375	24262.5625	-7088.84228515625
0.6605	-0.0	-0.0	-0.0	6.575049877166748	31.28840446472168	-174.34214782714844	-8.706809043884277	-37.248905181884766	-201.6289825439453	-0.0	-0.0	-0.0	-0.0	-0.0	-0.0	43260.984375	22317.3046875	-6237.427734375
0.661	-0.0	-0.0	-0.0	7.823940753936768	28.133026123046875	-161.56109619140625	-6.883450984954834	-34.16737365722656	-187.35276794433597	-0.0	-0.0	-0.0	-0.0	-0.0	-0.0	39621.0234375	20751.236328125	-5573.97119140625
0.6615	-0.0	-0.0	-0.0	8.345799446105957	25.468753814697266	-150.6129608154297	-5.224531173706055	-30.965229034423828	-173.4913330078125	-0.0	-0.0	-0.0	-0.0	-0.0	-0.0	36986.265625	18937.171875	-4922.5517578125
0.662	-0.0	-0.0	-0.0	8.296577453613281	22.57670211791992	-138.21646118164062	-4.97698450088501	-29.07103157043457	-162.913330078125	-0.0	-0.0	-0.0	-0.0	-0.0	-0.0	34556.65625	17915.90625	-4469.39404296875
0.6625	-0.0	-0.0	-0.0	8.006718635559082	20.299524307250977	-130.0762939453125	-4.723961353302002	-27.97578239440918	-154.44642639160156	-0.0	-0.0	-0.0	-0.0	-0.0	-0.0	32489.978515625	16714.84375	-4172.3154296875
0.663	-0.0	-0.0	-0.0	7.556027412414551	19.02503776550293	-121.01934051513672	-4.37346887588501	-27.141281127929688	-146.95823669433594	-0.0	-0.0	-0.0	-0.0	-0.0	-0.0	31078.703125	15961.609375	-3943.47412109375
0.6635	-0.0	-0.0	-0.0	6.869209289550781	17.72857093811035	-116.21632385253906	-3.863201379776001	-26.05489730834961	-142.5064239501953	-0.0	-0.0	-0.0	-0.0	-0.0	-0.0	29995.470703125	15215.0830078125	-3532.0556640625
0.664	-0.0	-0.0	-0.0	6.463681697845459	17.80443000793457	-113.83089447021484	-2.604458808898926	-26.08987236022949	-137.0783233642578	-0.0	-0.0	-0.0	-0.0	-0.0	-0.0	28733.009765625	14535.9501953125	-3513.31494140625
0.6645	-0.0	-0.0	-0.0	7.309741497039795	17.70990753173828	-109.18617248535156	-2.586032629013061	-25.83001518249512	-134.8575897216797	-0.0	-0.0	-0.0	-0.0	-0.0	-0.0	28241.173828125	13780.2470703125	-3330.7724609375
0.665	-0.0	-0.0	-0.0	7.515039920806885	17.888093948364258	-106.2226104736328	-2.599527359008789	-25.830127716064453	-132.73057556152344	-0.0	-0.0	-0.0	-0.0	-0.0	-0.0	28209.568359375	13380.7021484375	-3257.953857421875
0.6655	-0.0	-0.0	-0.0	7.431689262390137	18.217348098754883	-104.541259765625	-2.8387451171875	-26.24497604370117	-131.9261932373047	-0.0	-0.0	-0.0	-0.0	-0.0	-0.0	27931.837890625	12951.3623046875	-3093.7451171875
0.666	-0.0	-0.0	-0.0	7.9260993003845215	18.401735305786133	-102.91259765625	-2.2237160205841064	-26.360252380371094	-132.7840576171875	-0.0	-0.0	-0.0	-0.0	-0.0	-0.0	28502.74609375	12838.833984375	-2967.6259765625
0.6665	-0.0	-0.0	-0.0	8.303084373474121	18.69656181335449	-103.23680877685548	-1.2345998287200928	-26.822792053222656	-136.00901794433594	-0.0	-0.0	-0.0	-0.0	-0.0	-0.0	29256.6640625	11725.9599609375	-2741.317138671875
0.667	-0.0	-0.0	-0.0	9.174970626831056	20.02694129943848	-102.4764633178711	0.9557499885559082	-26.84979248046875	-138.5061492919922	-0.0	-0.0	-0.0	-0.0	-0.0	-0.0	30026.4609375	11449.4462890625	-1943.3963623046875
0.6675	-0.0	-0.0	-0.0	10.231729507446287	21.027814865112305	-106.27957916259766	3.405220031738281	-27.46804428100586	-147.3157501220703	-0.0	-0.0	-0.0	-0.0	-0.0	-0.0	31808.796875	10540.0654296875	-1067.8057861328125
0.668	-0.0	-0.0	-0.0	12.022411346435549	22.92681884765625	-111.44123077392578	7.342404842376709	-27.58357048034668	-155.1838836669922	-0.0	-0.0	-0.0	-0.0	-0.0	-0.0	34192.1015625	9932.0361328125	-239.09661865234372
0.6685	-0.0	-0.0	-0.0	14.053815841674805	24.407928466796875	-114.97257995605467	11.722844123840332	-28.364900588989254	-166.06002807617188	-0.0	-0.0	-0.0	-0.0	-0.0	-0.0	37269.30078125	9349.0810546875	872.7290649414062
0.669	-0.0	-0.0	-0.0	17.251468658447266	26.333425521850582	-121.38429260253906	15.244526863098145	-29.132488250732425	-178.2793426513672	-0.0	-0.0	-0.0	-0.0	-0.0	-0.0	40276.0	8321.1240234375	2202.82373046875
0.6695	-0.0	-0.0	-0.0	20.228952407836918	26.958986282348636	-129.93873596191406	19.62496757507324	-30.402456283569336	-193.4781646728516	-0.0	-0.0	-0.0	-0.0	-0.0	-0.0	44606.953125	7605.4794921875	3186.936279296875
0.67	-0.0	-0.0	-0.0	22.2469539642334	27.09564208984375	-142.37664794921875	23.1732120513916	-31.666257858276367	-211.2831268310547	-0.0	-0.0	-0.0	-0.0	-0.0	-0.0	49370.49609375	6848.49267578125	4238.51953125
0.6705	-0.0	-0.0	-0.0	24.825550079345703	27.46609687805176	-150.940185546875	26.053312301635746	-32.576934814453125	-231.2697906494141	-0.0	-0.0	-0.0	-0.0	-0.0	-0.0	54711.79296875	6144.0908203125	5125.55322265625
0.671	-0.0	-0.0	-0.0	27.125322341918945	27.034446716308597	-166.8538055419922	29.34658432006836	-33.52082824707031	-252.58921813964844	-0.0	-0.0	-0.0	-0.0	-0.0	-0.0	60353.10546875	5544.451171875	5894.166015625
0.6715	-0.0	-0.0	-0.0	28.93734359741211	26.56085968017578	-181.74136352539065	31.184490203857425	-34.36241149902344	-273.4821472167969	-0.0	-0.0	-0.0	-0.0	-0.0	-0.0	65701.6328125	5002.4248046875	6397.638671875
0.672	-0.0	-0.0	-0.0	29.99796867370605	25.44429397583008	-199.2877197265625	32.71147155761719	-34.138858795166016	-292.0404052734375	-0.0	-0.0	-0.0	-0.0	-0.0	-0.0	71150.328125	4607.93896484375	6739.00732421875
0.6725	-0.0	-0.0	-0.0	30.68370819091797	24.49208641052246	-216.88975524902344	32.701438903808594	-34.1199836730957	-310.5993347167969	-0.0	-0.0	-0.0	-0.0	-0.0	-0.0	75967.3046875	4021.1982421875	6841.990234375
0.673	-0.0	-0.0	-0.0	31.13446807861328	22.91614532470703	-235.8301239013672	31.99190330505371	-34.96144485473633	-328.1842346191406	-0.0	-0.0	-0.0	-0.0	-0.0	-0.0	80424.765625	3683.26708984375	6682.033203125
0.6735	-0.0	-0.0	-0.0	30.26642608642578	22.33918571472168	-253.71214294433597	30.362716674804688	-36.24429321289063	-341.24920654296875	-0.0	-0.0	-0.0	-0.0	-0.0	-0.0	84399.7265625	3881.14697265625	6230.95458984375
